PathFileType	4	(X/Y/Z)	C:/Users/opensim2020/Desktop/walking_exp_matlab/subject06_walking19_straight_03.trc																																																																																																																																																	
DataRate	CameraRate	NumFrames	NumMarkers	Units	OrigDataRate	OrigDataStartFrame	OrigNumFrames																																																																																																																																													
100	100	4	49	mm	100	3535	358																																																																																																																																													
Frame#	Time	LFHD			RFHD			LBHD			RBHD			C7			T10			CLAV			STRN			RBAK			LSHO			LUPA			LELB			LFRM			LWRA			LWRB			LFIN			RSHO			RUPA			RELB			RFRM			RWRA			RWRB			RFIN			LASI			RASI			LPSI			RPSI			LTHI			LKNE			LTIB			LANK			LHEE			LTOE			RTHI			RKNE			RTIB			RANK			RHEE			RTOE			*39			*40			*41			*42			*43			*44			*45			*46			*47			*48		
		X1	Y1	Z1	X2	Y2	Z2	X3	Y3	Z3	X4	Y4	Z4	X5	Y5	Z5	X6	Y6	Z6	X7	Y7	Z7	X8	Y8	Z8	X9	Y9	Z9	X10	Y10	Z10	X11	Y11	Z11	X12	Y12	Z12	X13	Y13	Z13	X14	Y14	Z14	X15	Y15	Z15	X16	Y16	Z16	X17	Y17	Z17	X18	Y18	Z18	X19	Y19	Z19	X20	Y20	Z20	X21	Y21	Z21	X22	Y22	Z22	X23	Y23	Z23	X24	Y24	Z24	X25	Y25	Z25	X26	Y26	Z26	X27	Y27	Z27	X28	Y28	Z28	X29	Y29	Z29	X30	Y30	Z30	X31	Y31	Z31	X32	Y32	Z32	X33	Y33	Z33	X34	Y34	Z34	X35	Y35	Z35	X36	Y36	Z36	X37	Y37	Z37	X38	Y38	Z38	X39	Y39	Z39	X40	Y40	Z40	X41	Y41	Z41	X42	Y42	Z42	X43	Y43	Z43	X44	Y44	Z44	X45	Y45	Z45	X46	Y46	Z46	X47	Y47	Z47	X48	Y48	Z48	X49	Y49	Z49
																																																																																																																																																				
269	2.68	473.40814	1681.22791	1400.59961	476.93079	1668.7843	1531.07593	343.7886	1618.7998	1403.65833	348.83362	1611.9646	1533.07776	350.28516	1464.6842	1456.83313	317.35019	1136.67627	1464.44739	460.28967	1388.41406	1457.20935	501.18213	1212.22351	1450.33533	279.52618	1293.55908	1537.48584	408.69931	1419.0957	1295.3938	415.94489	1214.71729	1226.62964	419.79327	1102.25952	1217.18567	463.53522	957.83478	1197.74939	540.30786	854.35803	1240.5896	481.41507	839.70447	1204.38403	534.11896	765.68304	1204.79309	417.31073	1419.58887	1618.33447	384.68948	1220.45935	1707.19751	398.75381	1098.81067	1718.55481	428.61084	982.11353	1731.21545	503.38037	853.34399	1690.64331	453.43906	846.82672	1734.44067	500.5022	776.60651	1732.23315	484.1178	973.948	1346.50452	495.22247	977.88843	1566.19641	328.47336	1003.95184	1378.96521	342.78156	1008.25299	1547.58142	445.51276	656.73462	1291.65479	467.79205	495.646	1313.36792	323.69568	290.69061	1307.80347	236.50206	139.58383	1335.93457	194.76804	136.8362	1384.0708	351.44656	57.44168	1324.58374	453.20273	644.91656	1614.63928	459.5647	521.40735	1584.83008	409.965	258.40616	1587.47961	383.5094	72.92374	1543.47644	337.55887	47.87854	1504.81274	530.87329	43.37165	1524.87903	372.09857	1713.03052	1462.95569	NaN	NaN	NaN	NaN	NaN	NaN	NaN	NaN	NaN	NaN	NaN	NaN	NaN	NaN	NaN	NaN	NaN	NaN	NaN	NaN	NaN	NaN	NaN	NaN	NaN	NaN	NaN
270	2.69	479.0654	1681.26062	1400.7489	482.32013	1668.93408	1530.95056	349.33725	1618.93604	1403.93005	354.3439	1612.25232	1533.38611	355.85178	1464.89685	1457.50647	322.92648	1136.81958	1465.44751	465.79495	1388.54395	1457.80286	506.52475	1212.33252	1451.12122	285.10855	1293.94666	1538.53186	413.78171	1419.12622	1295.98096	419.35971	1214.75134	1226.81494	422.32169	1102.29297	1217.39575	464.24387	957.45819	1197.36938	539.88556	852.84143	1239.60266	480.66431	839.16992	1203.52515	532.42566	764.36377	1203.55847	423.1149	1419.98755	1618.90588	390.5163	1221.01147	1708.09229	404.6402	1099.35046	1719.32166	435.14413	982.87317	1731.99414	510.68637	854.68298	1690.8877	460.90958	847.7345	1734.90088	508.4104	777.84583	1732.38	489.24026	974.35419	1347.31287	500.35056	977.57672	1566.89148	333.52365	1004.3988	1379.48682	348.18884	1008.25128	1548.16028	452.98239	657.70819	1291.92834	476.62836	496.7724	1314.16333	337.73245	287.85605	1308.40125	255.20265	133.99921	1336.51196	213.34685	129.7908	1384.64233	372.82602	56.7034	1325.03491	457.62454	644.49066	1614.16821	462.84732	520.96021	1584.92847	411.44366	258.25803	1587.4292	383.60886	72.88704	1543.41943	337.53372	47.89929	1504.82178	530.94379	43.35006	1524.81177	377.74582	1713.23889	1463.01843	NaN	NaN	NaN	NaN	NaN	NaN	NaN	NaN	NaN	NaN	NaN	NaN	NaN	NaN	NaN	NaN	NaN	NaN	NaN	NaN	NaN	NaN	NaN	NaN	NaN	NaN	NaN
271	2.7	484.72028	1681.20532	1400.85461	487.94943	1669.14148	1531.01135	354.94849	1618.97998	1404.15198	360.06683	1612.56689	1533.521	361.51257	1465.07056	1458.1499	328.07278	1137.00244	1466.52307	471.32114	1388.59839	1458.33362	511.89777	1212.34595	1451.89063	290.73566	1294.29358	1539.52722	418.88617	1419.03723	1296.55396	422.79904	1214.70642	1227.13745	424.86365	1102.25964	1217.5144	465.02106	957.08154	1196.93823	539.51428	851.34058	1238.60095	480.06281	838.61121	1202.58594	530.75806	763.06952	1202.3009	428.94672	1420.33154	1619.52197	396.44647	1221.44531	1709.02417	410.7009	1099.84045	1720.31592	441.77075	983.53406	1732.73169	517.95648	855.935	1691.07861	468.35449	848.63574	1735.34814	515.87372	778.72693	1731.90308	494.33682	974.76007	1347.93359	505.40295	977.32263	1567.49512	338.98386	1004.78986	1380.13037	353.30997	1008.2572	1548.67639	460.24619	658.65125	1292.16589	485.3161	497.85327	1314.80286	352.13416	284.8075	1308.81262	274.26126	128.49084	1337.11304	232.55161	122.85844	1385.19165	394.74393	55.77185	1325.63232	459.97528	644.30548	1615.30725	465.92734	520.49304	1584.87854	413.04807	258.15771	1587.27551	383.96698	72.91017	1543.43604	337.61627	47.91722	1504.84387	531.39948	43.55057	1524.94055	383.42563	1713.37756	1463.03418	NaN	NaN	NaN	NaN	NaN	NaN	NaN	NaN	NaN	NaN	NaN	NaN	NaN	NaN	NaN	NaN	NaN	NaN	NaN	NaN	NaN	NaN	NaN	NaN	NaN	NaN	NaN
272	2.71	490.37439	1681.1001	1400.87354	493.85339	1669.39282	1531.22644	360.71155	1618.89441	1404.30505	365.81146	1612.74048	1533.68188	367.20615	1465.23425	1458.823	333.31934	1137.21643	1467.5437	476.90369	1388.59973	1458.84485	517.255	1212.27087	1452.61877	296.41159	1294.5304	1540.47754	424.01556	1418.88477	1297.07141	426.23331	1214.56982	1227.41748	427.18677	1102.22522	1217.6405	465.83447	956.58392	1196.46204	539.18048	849.86609	1237.55896	479.45276	837.94189	1201.78442	529.2041	761.82593	1201.07654	434.80389	1420.57971	1620.07568	402.40219	1221.83105	1709.92798	416.55801	1100.23108	1721.21265	448.23615	984.11615	1733.35974	525.15698	857.11029	1691.23083	475.87012	849.41266	1735.66455	524.35944	780.14758	1732.4552	499.51233	975.07867	1348.59717	510.45474	977.01581	1568.0946	343.93051	1005.0968	1380.64514	358.14529	1008.25891	1549.29089	467.47739	659.50012	1292.14417	493.96548	498.86685	1315.35059	366.75928	281.80164	1309.20862	293.95535	123.0741	1337.76404	252.36464	116.03584	1385.86023	416.98456	54.80139	1326.45044	464.05371	643.80383	1615.17395	469.29333	520.16888	1585.09058	414.64871	258.04596	1587.00281	384.25787	72.95171	1543.30151	337.38861	48.4345	1504.91895	531.61145	43.55505	1524.77856	389.07504	1713.40271	1462.97937	NaN	NaN	NaN	NaN	NaN	NaN	NaN	NaN	NaN	NaN	NaN	NaN	NaN	NaN	NaN	NaN	NaN	NaN	NaN	NaN	NaN	NaN	NaN	NaN	NaN	NaN	NaN
